<?xml version="1.0" encoding="UTF-8"?>
<svg width="40px" height="40px" viewBox="0 0 40 40" version="1.1" xmlns="http://www.w3.org/2000/svg" xmlns:xlink="http://www.w3.org/1999/xlink">
    <!-- Generator: Sketch 42 (36781) - http://www.bohemiancoding.com/sketch -->
    <title>icon/icon-37</title>
    <desc>Created with Sketch.</desc>
    <defs></defs>
    <g id="Iconography" stroke="none" stroke-width="1" fill="none" fill-rule="evenodd">
        <g id="icon/icon-37" fill="#3D95D1">
            <path d="M39.6513357,23.2729906 L36.0211117,19.0673425 C35.8963413,18.9283128 35.7180979,18.8993483 35.5517374,18.8124547 C35.0229486,18.5286025 34.3931552,18.4648805 33.9059566,18.8703838 L29.5746417,22.4272266 C28.9448484,22.9370022 28.8676096,23.852281 29.3904569,24.4663287 C29.6875292,24.8081101 30.109372,24.9818972 30.5312147,24.9818972 C30.8639357,24.9818972 31.2085396,24.871832 31.4877877,24.6401159 L32.9196764,23.4641564 C31.3570758,29.0021723 26.1998999,33.1035482 20.032678,33.1035482 C14.7210244,33.1035482 9.89656948,30.0333092 7.75170714,25.294714 C7.41898611,24.5590152 6.52182762,24.2346126 5.7969711,24.5532223 C5.04240733,24.8776249 4.70374486,25.7291818 5.03646589,26.4648805 C7.65070254,32.2577842 13.5386765,36 20.032678,36 C27.8337978,36 34.3396822,30.6531499 35.9973459,23.5394642 L37.3757616,25.1383056 C37.6728339,25.4800869 38.0887352,25.653874 38.5165194,25.653874 C38.8492404,25.653874 39.1938443,25.5438088 39.4730923,25.3178856 C40.0969443,24.8023172 40.1801245,23.8870384 39.6513357,23.2729906 M3.96700544,20.9210717 L0.348664253,16.7212165 C-0.180124524,16.1071687 -0.0969442671,15.1918899 0.526907661,14.6821144 C1.15670104,14.1549602 2.08950821,14.2360608 2.62423843,14.8559015 L3.99671267,16.4547429 C5.64843492,9.3410572 12.1662022,4 19.9613806,4 C26.5623281,4 32.4859507,7.82910934 35.0645387,13.7610427 C35.3794354,14.4967415 35.02889,15.3425054 34.2743263,15.6611151 C33.5019382,15.968139 32.6463698,15.6263577 32.3255317,14.884866 C30.216318,10.0304127 25.3680973,6.89645185 19.9613806,6.89645185 C13.7882172,6.89645185 8.63104128,10.9978277 7.07438219,16.5300507 L8.51221235,15.3540912 C9.13606427,14.8327299 10.0688714,14.9138306 10.6036017,15.5336713 C11.1323904,16.1419261 11.0551516,17.0572049 10.4253583,17.5727734 L6.088102,21.1238233 C5.80885399,21.3555395 5.46425007,21.4656046 5.12558759,21.4656046 C5.06617312,21.4656046 5.01864155,21.3902969 4.94734418,21.384504 C4.56115013,21.3555395 4.21654621,21.1933382 3.96700544,20.9210717" id="Fill-1"></path>
        </g>
    </g>
</svg>
