<?xml version="1.0" encoding="UTF-8"?>
<svg width="40px" height="40px" viewBox="0 0 40 40" version="1.1" xmlns="http://www.w3.org/2000/svg" xmlns:xlink="http://www.w3.org/1999/xlink">
    <!-- Generator: Sketch 42 (36781) - http://www.bohemiancoding.com/sketch -->
    <title>icon/icon-31</title>
    <desc>Created with Sketch.</desc>
    <defs></defs>
    <g id="Iconography" stroke="none" stroke-width="1" fill="none" fill-rule="evenodd">
        <g id="icon/icon-31" fill="#FF0000">
            <path d="M23.1422222,20 L39.3466667,3.79555556 C40.2177778,2.92444444 40.2177778,1.52 39.3466667,0.648888889 C38.4844444,-0.213333333 37.0711111,-0.213333333 36.2088889,0.648888889 L19.9955556,16.8533333 L3.79111111,0.648888889 C2.92888889,-0.213333333 1.51555556,-0.213333333 0.653333333,0.648888889 C-0.217777778,1.52 -0.217777778,2.92444444 0.653333333,3.79555556 L16.8577778,20 L0.653333333,36.2044444 C-0.217777778,37.0755556 -0.217777778,38.48 0.653333333,39.3511111 C1.08888889,39.7866667 1.64888889,40 2.21777778,40 C2.79555556,40 3.35555556,39.7866667 3.79111111,39.3511111 L19.9955556,23.1466667 L36.2088889,39.3511111 C36.6444444,39.7866667 37.2044444,40 37.7733333,40 C38.3511111,40 38.9111111,39.7866667 39.3466667,39.3511111 C40.2177778,38.48 40.2177778,37.0755556 39.3466667,36.2044444 L23.1422222,20 Z" id="Page-1"></path>
        </g>
    </g>
</svg>
