<?xml version="1.0" encoding="UTF-8"?>
<svg width="40px" height="40px" viewBox="0 0 40 40" version="1.1" xmlns="http://www.w3.org/2000/svg" xmlns:xlink="http://www.w3.org/1999/xlink">
    <!-- Generator: Sketch 42 (36781) - http://www.bohemiancoding.com/sketch -->
    <title>icon/icon-74</title>
    <desc>Created with Sketch.</desc>
    <defs></defs>
    <g id="Iconography" stroke="none" stroke-width="1" fill="none" fill-rule="evenodd">
        <g id="icon/icon-74" fill="#D6D6D6">
            <path d="M21.7695042,30.4961188 L21.7695042,14.1275734 C21.7695042,13.196085 22.5216275,12.4400945 23.4483508,12.4400945 C24.3750741,12.4400945 25.1271973,13.196085 25.1271973,14.1275734 L25.1271973,30.4961188 C25.1271973,31.4276072 24.3750741,32.1835977 23.4483508,32.1835977 C22.5216275,32.1835977 21.7695042,31.4276072 21.7695042,30.4961188 L21.7695042,30.4961188 Z M18.2304958,14.1275734 L18.2304958,30.4961188 C18.2304958,31.4276072 17.4716571,32.1835977 16.5516492,32.1835977 C15.6249259,32.1835977 14.8728027,31.4276072 14.8728027,30.4961188 L14.8728027,14.1275734 C14.8728027,13.196085 15.6249259,12.4400945 16.5516492,12.4400945 C17.4716571,12.4400945 18.2304958,13.196085 18.2304958,14.1275734 L18.2304958,14.1275734 Z M11.2062019,36.6250422 L28.7937981,36.6250422 L28.7937981,7.99865002 L11.2062019,7.99865002 L11.2062019,36.6250422 Z M35.3211535,4.6236922 L30.4726447,4.6236922 L21.6754888,4.6236922 L21.6754888,1.68747891 C21.6754888,0.762740466 20.9233656,0 19.9966423,0 C19.0766344,0 18.3177958,0.762740466 18.3177958,1.68747891 L18.3177958,4.6236922 L9.52735532,4.6236922 L4.67884653,4.6236922 C3.75212325,4.6236922 3,5.37968275 3,6.31117111 C3,7.24265947 3.75212325,7.99865002 4.67884653,7.99865002 L7.84850879,7.99865002 L7.84850879,38.3125211 C7.84850879,39.2440094 8.60063204,40 9.52735532,40 L30.4726447,40 C31.399368,40 32.1514912,39.2440094 32.1514912,38.3125211 L32.1514912,7.99865002 L35.3211535,7.99865002 C36.2411614,7.99865002 37,7.24265947 37,6.31117111 C37,5.37968275 36.2411614,4.6236922 35.3211535,4.6236922 L35.3211535,4.6236922 Z" id="Fill-1"></path>
        </g>
    </g>
</svg>
